<?xml version="1.0" encoding="UTF-8"?>
<!DOCTYPE svg PUBLIC "-//W3C//DTD SVG 1.1//EN" "http://www.w3.org/Graphics/SVG/1.1/DTD/svg11.dtd">
<!-- Creator: CorelDRAW X7 -->
<svg xmlns="http://www.w3.org/2000/svg" xml:space="preserve" width="5.4186mm" height="5.4186mm" version="1.1" style="shape-rendering:geometricPrecision; text-rendering:geometricPrecision; image-rendering:optimizeQuality; fill-rule:evenodd; clip-rule:evenodd"
viewBox="0 0 542 542"
 xmlns:xlink="http://www.w3.org/1999/xlink">
 <defs>
  <style type="text/css">
   <![CDATA[
    .fil0 {fill:black;fill-rule:nonzero}
   ]]>
  </style>
 </defs>
 <g id="Layer_x0020_1">
  <metadata id="CorelCorpID_0Corel-Layer"/>
  <path class="fil0" d="M315 279c-4,3 -7,6 -10,9 -3,3 -6,6 -10,9 -8,7 -16,13 -24,18 -9,6 -17,10 -25,14 -9,4 -17,7 -24,8 -8,2 -15,3 -22,3 -9,0 -16,-1 -23,-4 -7,-2 -14,-6 -19,-12 -5,-5 -9,-12 -12,-21 -3,-8 -4,-18 -4,-30 0,-2 0,-4 0,-6 0,-2 0,-4 1,-7 0,-6 1,-12 3,-19 1,-7 3,-15 5,-22 2,-8 5,-15 8,-23 2,-8 5,-16 9,-23 -10,-2 -19,-5 -26,-10 -7,-6 -13,-12 -18,-19 -5,-8 -9,-16 -12,-25 -2,-10 -3,-19 -3,-29 0,-2 0,-4 0,-5 0,-2 0,-4 0,-6 1,-8 2,-16 5,-26 3,-9 7,-17 11,-25 5,-8 10,-15 17,-20 6,-5 13,-8 20,-8 2,0 4,0 5,1 1,1 2,2 3,3 1,1 1,2 2,3 0,1 0,3 0,4 0,2 -1,3 -2,3l-2 0c-2,-1 -4,-2 -5,-2 -4,0 -8,2 -12,6 -4,3 -7,8 -10,13 -3,6 -6,12 -8,18 -2,7 -3,13 -4,19 0,1 0,3 0,4 0,2 0,3 0,5 0,8 1,16 3,25 2,8 5,15 9,22 4,6 10,12 16,16 6,5 14,7 23,8 10,-20 22,-38 35,-56 13,-18 27,-33 42,-47 15,-13 31,-24 47,-32 16,-8 32,-12 49,-12 12,0 24,3 34,8 11,6 20,14 27,26 6,10 11,22 14,35 4,13 5,26 5,38 0,2 0,3 0,5 0,1 0,3 0,4 -1,8 -2,14 -4,20 -2,6 -5,12 -8,16 -3,5 -7,8 -12,11 -5,2 -10,4 -16,4 -5,0 -10,-1 -16,-3 -5,-2 -10,-5 -14,-9 -4,-4 -7,-9 -10,-15 -3,-5 -4,-12 -4,-19 -6,6 -13,11 -22,16 -8,5 -17,10 -27,14 -11,5 -21,9 -32,13 -12,3 -23,6 -35,8 -4,10 -7,19 -10,27 -3,9 -6,17 -8,24 -2,8 -4,15 -5,21 -1,7 -2,13 -3,20 0,1 0,3 0,5 0,2 0,4 0,6 0,11 2,20 6,27 3,7 9,10 17,10 8,0 16,-2 24,-6 8,-3 15,-8 23,-14 8,-6 16,-13 23,-21 7,-7 14,-15 20,-22 0,-2 0,-4 0,-5 0,0 0,-2 0,-3 0,-2 -1,-3 -1,-4 -1,-1 -1,-2 -2,-3 0,-1 -1,-1 -1,-1 0,0 0,-1 0,-1 -1,-1 0,-3 2,-4 2,-2 4,-3 7,-3 8,-1 15,-1 20,0 4,0 7,1 9,2 3,1 5,3 7,4 1,2 3,3 4,5 0,2 1,4 1,5 0,9 0,18 -2,28 -1,10 -3,21 -6,32 -2,11 -5,22 -9,33 -3,12 -6,23 -10,34 -4,11 -7,22 -11,32 -3,10 -7,20 -10,28 -4,11 -9,23 -14,35 -6,12 -12,23 -20,34 -7,10 -15,19 -25,27 -9,8 -19,13 -31,15 -1,0 -3,0 -4,0 -1,0 -3,0 -5,1 -10,1 -19,0 -25,-2 -7,-2 -13,-5 -17,-9 -4,-4 -6,-7 -8,-10 -1,-4 -2,-7 -2,-11 -1,-3 -1,-7 0,-10 0,-3 1,-7 3,-10 3,-6 7,-12 11,-19 5,-6 11,-12 17,-18 7,-6 13,-12 21,-18 7,-6 14,-12 22,-17 7,-6 15,-11 22,-16 7,-5 14,-9 20,-13 6,-17 11,-33 15,-49 5,-15 10,-31 14,-47l3 -13zm45 -185c0,0 0,0 1,0 0,0 1,0 1,0l3 0c-1,3 -2,6 -3,9 0,3 0,5 -1,7 0,6 0,12 2,17 1,6 3,10 5,14 3,5 6,8 10,10 4,3 8,4 12,4 3,0 5,-1 7,-3 2,-1 4,-4 6,-6 1,-3 3,-6 3,-10 1,-4 2,-8 3,-12 0,-2 0,-4 0,-6 0,-2 0,-4 0,-6 0,-10 -1,-20 -3,-31 -2,-11 -5,-21 -10,-29 -4,-9 -9,-16 -15,-22 -7,-5 -14,-8 -22,-8 -10,0 -20,3 -30,11 -10,7 -20,16 -30,28 -10,12 -20,25 -29,40 -9,15 -17,30 -25,45 10,-1 21,-3 32,-6 11,-2 22,-5 32,-9 10,-5 19,-10 28,-15 9,-6 16,-14 22,-22l1 0zm-126 411c4,-6 8,-13 13,-21 4,-9 8,-17 12,-26 3,-9 7,-18 11,-27 3,-8 6,-16 9,-24 -8,6 -17,12 -26,19 -10,6 -19,14 -27,21 -9,7 -17,15 -24,22 -8,8 -13,15 -16,22 -2,3 -3,7 -3,11 1,4 2,8 4,11 2,3 4,6 8,8 4,2 8,3 12,3 5,0 9,-2 14,-6 5,-3 10,-7 13,-13z"/>
 </g>
</svg>
