<?xml version="1.0" encoding="UTF-8"?>
<!DOCTYPE svg PUBLIC "-//W3C//DTD SVG 1.1//EN" "http://www.w3.org/Graphics/SVG/1.1/DTD/svg11.dtd">
<!-- Creator: CorelDRAW X7 -->
<svg xmlns="http://www.w3.org/2000/svg" xml:space="preserve" width="169.333mm" height="169.333mm" version="1.1" style="shape-rendering:geometricPrecision; text-rendering:geometricPrecision; image-rendering:optimizeQuality; fill-rule:evenodd; clip-rule:evenodd"
viewBox="0 0 16933 16933"
 xmlns:xlink="http://www.w3.org/1999/xlink">
 <defs>
  <style type="text/css">
   <![CDATA[
    .fil0 {fill:black;fill-rule:nonzero}
   ]]>
  </style>
 </defs>
 <g id="Layer_x0020_1">
  <metadata id="CorelCorpID_0Corel-Layer"/>
  <path class="fil0" d="M1859 8537c-30,30 -59,59 -87,86 -29,27 -58,53 -88,77 -73,62 -147,118 -222,167 -75,48 -150,90 -225,124 -74,33 -147,59 -217,77 -71,17 -137,26 -199,26 -75,0 -144,-12 -207,-35 -64,-24 -119,-61 -166,-110 -47,-50 -83,-113 -110,-189 -26,-77 -39,-167 -39,-271 0,-18 0,-37 2,-57 1,-21 3,-41 6,-61 5,-54 14,-113 27,-177 13,-64 29,-129 49,-197 20,-68 42,-137 67,-208 25,-71 53,-142 84,-211 -89,-13 -167,-43 -233,-90 -67,-47 -122,-104 -167,-171 -45,-67 -78,-142 -101,-226 -22,-84 -33,-171 -33,-260 0,-17 0,-32 1,-47 1,-15 2,-31 3,-47 5,-73 21,-151 47,-234 25,-84 59,-161 100,-233 42,-72 90,-131 146,-179 55,-47 117,-71 184,-71 18,0 33,3 44,10 12,7 21,15 29,25 7,9 12,19 15,30 3,11 3,21 2,30 -3,21 -10,31 -20,31l-19 0c-17,-11 -32,-16 -42,-16 -37,0 -72,16 -106,48 -34,33 -65,74 -93,123 -27,50 -51,104 -70,163 -19,59 -32,115 -40,170 -2,10 -2,23 -2,38 0,15 0,28 0,39 0,77 9,153 28,226 19,74 48,141 85,200 38,60 86,110 144,149 57,39 125,63 204,73 93,-179 200,-348 319,-509 119,-161 246,-301 382,-423 135,-121 276,-217 423,-288 146,-71 293,-107 440,-107 113,0 217,24 312,71 96,48 176,125 241,232 57,95 100,201 129,318 29,117 44,231 44,342 0,15 -1,30 -1,44 -1,14 -2,28 -3,42 -7,63 -19,123 -36,177 -17,55 -40,103 -69,144 -29,40 -65,72 -108,96 -42,24 -92,36 -149,36 -45,0 -91,-9 -138,-28 -47,-18 -90,-45 -128,-80 -38,-35 -69,-78 -93,-129 -23,-51 -35,-108 -35,-172 -54,46 -119,93 -195,139 -76,47 -160,91 -251,133 -92,41 -188,78 -290,111 -101,33 -204,59 -308,77 -38,88 -71,170 -98,245 -27,76 -50,148 -68,216 -18,67 -33,131 -44,191 -11,59 -19,117 -24,172 -1,17 -3,34 -3,51 -1,18 -1,34 -1,49 0,103 16,185 50,247 33,61 86,92 159,92 69,0 140,-17 211,-51 72,-35 143,-80 214,-135 70,-54 138,-116 203,-183 65,-68 125,-136 179,-204 2,-20 4,-34 4,-40 0,-7 -1,-18 -2,-33 0,-11 -3,-21 -8,-32 -6,-11 -12,-21 -19,-29 -1,-5 -3,-8 -5,-9 -2,-1 -3,-4 -5,-9 -3,-12 5,-25 22,-38 16,-13 37,-20 61,-23 76,-8 137,-9 183,-4 33,4 61,11 84,21 23,10 42,23 57,37 14,14 26,29 34,46 8,16 14,31 16,46 0,75 -6,158 -20,249 -14,92 -31,187 -54,287 -22,99 -48,201 -78,304 -30,104 -61,206 -93,306 -33,100 -66,197 -98,289 -33,92 -63,177 -91,254 -38,99 -82,203 -133,312 -50,109 -108,211 -174,306 -67,96 -141,178 -225,247 -83,69 -176,113 -279,130 -15,2 -29,3 -41,4 -12,2 -26,4 -40,7 -94,10 -171,7 -233,-12 -62,-18 -112,-47 -149,-86 -34,-31 -58,-62 -72,-92 -13,-31 -21,-62 -24,-95 -3,-30 -2,-60 3,-91 5,-32 15,-63 30,-94 24,-54 58,-109 102,-164 44,-56 95,-111 152,-167 56,-56 118,-110 184,-165 67,-54 134,-106 201,-155 67,-49 133,-96 198,-139 65,-44 125,-84 181,-120 51,-153 98,-300 140,-440 42,-140 82,-283 122,-428l24 -118zm408 -1672c3,0 6,1 10,1 3,1 6,1 9,1l26 0c-9,29 -16,55 -20,81 -4,25 -8,47 -10,68 -4,52 -1,103 11,152 11,49 29,92 53,129 23,37 52,67 85,88 33,22 69,33 109,33 24,0 46,-8 65,-22 19,-15 35,-35 49,-60 15,-25 26,-55 35,-90 9,-34 15,-71 19,-111 2,-14 3,-31 4,-50 2,-19 2,-37 2,-53 0,-91 -9,-185 -29,-282 -20,-96 -48,-184 -86,-263 -38,-78 -86,-143 -143,-194 -56,-51 -122,-76 -195,-76 -89,0 -180,33 -272,98 -92,65 -183,150 -272,256 -90,105 -175,225 -257,360 -82,135 -158,272 -227,410 92,-13 188,-30 287,-53 99,-23 194,-53 286,-90 92,-36 178,-81 256,-135 79,-53 144,-118 197,-194l8 -4zm-1133 3719c36,-56 73,-121 110,-196 38,-74 74,-152 109,-232 35,-81 69,-161 100,-240 31,-79 59,-151 83,-216 -70,48 -148,103 -234,164 -85,61 -167,125 -247,192 -79,67 -151,135 -216,202 -65,68 -112,132 -142,193 -18,34 -26,69 -24,104 2,35 13,67 31,97 18,29 43,52 75,71 32,18 70,27 113,27 38,-1 79,-17 124,-49 45,-31 84,-70 118,-117z"/>
  <path id="1" class="fil0" d="M3761 7759c-3,4 -11,8 -24,12 -12,4 -22,7 -27,7 -16,0 -30,-9 -43,-25 6,-15 10,-29 12,-42 2,-12 4,-26 7,-41 1,-34 -1,-70 -7,-107 -7,-37 -18,-71 -34,-100 -16,-30 -37,-55 -63,-75 -26,-19 -57,-29 -93,-29 -48,0 -96,19 -145,56 -48,37 -95,85 -140,144 -45,59 -87,125 -126,198 -39,73 -74,146 -105,219 -30,72 -55,140 -74,204 -19,64 -29,115 -32,154 -2,19 -2,40 -1,61 0,22 4,42 11,60 7,18 17,33 30,45 14,11 33,17 57,17 42,0 87,-21 133,-64 47,-43 93,-94 137,-155 44,-61 85,-125 123,-192 37,-67 69,-126 95,-176 4,-15 10,-33 19,-53 9,-20 12,-43 9,-67 -2,-19 5,-31 23,-38 17,-6 36,-9 57,-11 80,7 135,26 167,56 32,31 50,67 54,109 4,43 0,90 -13,140 -13,50 -23,97 -30,140 -1,10 -3,25 -7,47 -3,22 -6,45 -9,71 -2,26 -5,52 -6,78 -1,27 0,49 3,66 4,18 10,29 18,35 9,5 22,1 40,-14 33,-33 67,-75 104,-127 36,-52 73,-108 108,-167 36,-59 71,-118 104,-179 33,-60 63,-115 90,-165 15,-33 31,-64 46,-93 16,-29 29,-53 40,-72 9,-4 19,-6 30,-6 12,0 22,4 30,11 7,8 14,17 19,28l-20 44c-19,38 -41,82 -66,132 -25,50 -52,103 -82,159 -29,55 -60,112 -93,169 -33,56 -66,111 -100,162 -33,52 -67,99 -101,141 -35,43 -68,77 -99,103 -27,23 -59,42 -97,57 -38,15 -75,22 -112,22 -49,0 -87,-17 -114,-52 -27,-34 -47,-76 -60,-124 -13,-48 -20,-98 -21,-149 -1,-51 1,-94 6,-128 0,-3 0,-4 0,-5 0,-1 1,-6 2,-15 -37,61 -77,120 -121,177 -44,58 -91,109 -140,154 -49,45 -101,81 -155,109 -55,27 -110,41 -167,41 -53,0 -98,-9 -134,-28 -37,-19 -66,-44 -88,-75 -21,-32 -37,-68 -46,-110 -10,-42 -15,-86 -15,-132 0,-8 0,-18 0,-29 0,-10 1,-21 3,-30 8,-68 25,-143 51,-226 27,-82 61,-166 102,-251 41,-84 89,-167 143,-246 54,-80 114,-151 178,-213 64,-61 132,-111 204,-148 72,-37 146,-56 224,-56 59,0 112,14 158,43 46,28 85,65 116,110 31,46 54,97 68,153 14,56 19,113 15,169 -4,40 -12,76 -24,110l-2 2z"/>
  <path id="2" class="fil0" d="M4557 7674c-4,15 -7,29 -11,43 -3,13 -6,26 -9,38 16,-23 32,-47 48,-73 15,-26 33,-52 52,-79 36,-57 74,-114 113,-172 40,-57 81,-110 124,-156 44,-47 89,-85 137,-114 49,-29 100,-44 154,-44 38,0 69,7 93,19 25,13 44,31 58,53 14,23 24,49 28,81 4,31 4,65 2,101 -7,76 -25,161 -53,255 -29,94 -60,189 -96,284 -29,86 -57,172 -83,256 -26,84 -42,155 -49,213 0,14 1,29 1,48 1,18 3,35 5,52 3,16 8,29 15,40 6,11 15,16 26,16 19,0 44,-16 75,-49 31,-34 65,-76 101,-127 36,-52 72,-109 108,-171 37,-62 72,-123 104,-181 33,-58 61,-110 85,-156 25,-46 42,-80 53,-100 0,-4 2,-8 6,-12l8 -16c7,-13 13,-23 19,-31 5,-8 15,-12 30,-12 14,0 24,4 32,11 7,8 14,17 19,28 -9,16 -20,36 -31,59 -12,23 -23,46 -34,69 -27,52 -57,110 -88,173 -32,63 -66,126 -102,189 -36,63 -73,124 -113,183 -39,59 -79,112 -121,158 -41,46 -83,82 -125,109 -42,27 -84,41 -126,41 -47,0 -87,-7 -118,-21 -32,-15 -58,-34 -77,-58 -19,-25 -32,-54 -41,-88 -9,-33 -13,-71 -13,-111 0,-9 0,-18 0,-29 0,-11 0,-21 2,-30 5,-53 15,-109 31,-169 16,-60 33,-120 52,-183 19,-62 39,-123 62,-184 22,-60 44,-117 64,-169 27,-73 51,-139 72,-195 21,-57 33,-99 36,-126 1,-25 -5,-37 -19,-37 -24,0 -52,13 -84,40 -32,26 -66,61 -102,103 -36,43 -72,91 -108,144 -37,52 -72,106 -106,159 -34,54 -65,104 -92,151 -28,48 -52,87 -71,118l0 -2 -32 57 2 0c-23,56 -43,119 -59,190 -16,71 -27,139 -32,202 -2,11 -3,22 -3,32 0,10 0,20 0,31 0,33 3,61 7,84 4,23 8,42 12,56 4,13 6,22 6,29 0,19 -15,28 -45,28 -49,0 -89,-9 -122,-29 -32,-20 -58,-45 -76,-77 -18,-32 -31,-68 -39,-109 -7,-41 -11,-82 -11,-124 0,-14 1,-27 1,-41 1,-13 2,-27 3,-42 4,-45 10,-92 18,-140 7,-49 16,-98 26,-148 10,-49 21,-98 34,-145 12,-47 23,-93 34,-136 19,-73 36,-142 50,-205 14,-64 23,-119 27,-165 2,-22 1,-41 -1,-57 -2,-16 -4,-31 -7,-45 -1,-6 -2,-12 -3,-18 -1,-5 -1,-11 -1,-16 1,-19 10,-32 26,-39 15,-7 32,-10 51,-10 52,0 93,9 124,26 31,16 55,38 72,66 17,27 28,57 33,90 5,33 6,67 3,101 -3,36 -8,73 -15,110 -8,38 -16,72 -26,105z"/>
  <path id="3" class="fil0" d="M6616 8730c-120,0 -204,-30 -253,-90 -50,-60 -75,-145 -75,-255 0,-12 1,-25 1,-40 1,-14 2,-28 4,-43 0,-10 0,-17 0,-23 0,-5 0,-10 1,-16 0,-5 1,-12 2,-19 0,-8 2,-18 5,-32 -38,63 -80,124 -124,185 -45,61 -93,116 -144,165 -50,49 -104,88 -159,118 -56,29 -112,44 -171,44 -53,0 -97,-9 -134,-27 -36,-18 -66,-43 -88,-74 -23,-31 -38,-68 -48,-109 -9,-41 -14,-84 -14,-129 0,-11 0,-22 0,-32 0,-11 0,-22 2,-33 8,-68 25,-143 52,-226 26,-82 60,-166 101,-250 42,-85 89,-167 144,-247 54,-80 113,-151 177,-213 65,-61 133,-111 204,-148 72,-37 147,-56 224,-56 37,0 70,6 102,16 31,11 60,27 87,47l20 -77c15,-64 29,-125 43,-183 13,-58 26,-112 37,-160 10,-49 19,-92 26,-128 7,-37 11,-65 12,-86 1,-23 1,-42 -1,-59 -2,-16 -4,-30 -7,-42 -1,-7 -2,-14 -3,-20 -1,-6 -1,-12 -1,-17 1,-19 10,-31 25,-38 16,-6 33,-9 52,-9 53,0 95,8 127,25 32,16 56,37 72,64 17,26 27,56 31,90 4,34 4,69 2,104 -3,31 -9,73 -19,126 -9,53 -21,113 -36,180 -15,67 -32,140 -50,218 -18,78 -37,158 -56,241 -5,27 -13,60 -22,98 -10,39 -20,80 -31,124 -14,56 -30,117 -45,182 -16,65 -30,130 -44,195 -14,64 -24,126 -32,185 -9,59 -13,110 -13,155 0,13 0,24 0,35 0,11 2,21 4,30 9,56 33,84 74,84 16,0 34,-4 53,-12 20,-9 39,-19 58,-32 19,-13 38,-27 55,-43 18,-15 33,-30 47,-45 35,-40 69,-84 101,-133 33,-50 64,-100 93,-152 29,-51 56,-102 81,-153 25,-51 48,-97 68,-137 19,-38 35,-71 48,-98 13,-27 23,-46 32,-57 5,-4 11,-6 17,-8 6,-1 11,-2 15,-2 11,0 20,4 27,11 8,8 14,17 20,28 -14,24 -27,51 -40,81 -13,30 -27,59 -42,87 -24,49 -49,100 -75,152 -25,52 -52,104 -80,155 -28,52 -56,102 -85,151 -29,48 -60,93 -91,134 -23,28 -47,57 -73,85 -26,28 -53,53 -83,76 -30,23 -62,41 -96,56 -34,15 -71,24 -111,26zm-256 -818c14,-68 30,-138 46,-211 17,-72 33,-146 51,-220 3,-15 7,-29 11,-42 5,-13 9,-27 11,-41 -27,-21 -59,-31 -97,-31 -47,0 -96,19 -144,56 -49,37 -96,85 -141,144 -44,59 -86,125 -126,198 -39,73 -74,146 -104,219 -31,72 -55,140 -74,204 -19,64 -30,115 -33,154 -3,19 -3,40 -2,61 1,22 5,42 11,60 6,19 16,33 30,45 13,11 32,17 57,17 29,0 61,-11 93,-32 33,-22 65,-50 98,-86 32,-35 64,-75 94,-119 31,-45 60,-90 88,-136 27,-45 52,-89 75,-132 22,-42 41,-79 58,-110l-2 2z"/>
  <path id="4" class="fil0" d="M7593 7755c18,-23 34,-47 49,-73 15,-26 32,-52 50,-79 37,-57 75,-114 114,-172 40,-57 81,-110 124,-156 44,-47 89,-85 137,-114 48,-29 100,-44 154,-44 36,0 67,7 92,19 25,13 45,31 58,54 14,23 23,50 28,81 4,30 5,64 1,100 -7,75 -25,159 -54,252 -29,94 -60,187 -91,281 -31,89 -59,175 -85,259 -26,83 -42,155 -49,216 0,14 1,29 1,48 1,18 3,35 5,52 3,16 8,29 15,40 6,11 15,16 26,16 22,0 49,-18 82,-55 33,-38 69,-85 108,-142 39,-57 77,-118 116,-185 38,-66 74,-129 106,-189 33,-59 60,-110 82,-152 21,-42 34,-66 38,-73l6 -14 -2 0c7,-14 14,-25 20,-33 6,-8 17,-12 33,-12 11,0 20,4 29,11 8,8 15,17 20,28l-61 124c-27,52 -57,111 -89,174 -33,64 -67,128 -104,191 -37,64 -75,125 -115,184 -40,59 -80,111 -121,157 -40,45 -82,82 -125,109 -42,28 -84,42 -125,42 -47,0 -86,-7 -118,-20 -31,-14 -56,-33 -76,-57 -19,-25 -33,-54 -41,-88 -8,-33 -13,-71 -13,-111 0,-10 0,-20 0,-31 0,-11 1,-21 2,-30 7,-53 18,-109 33,-169 15,-60 32,-120 52,-183 19,-62 40,-123 62,-184 21,-60 42,-117 63,-169 27,-73 51,-139 72,-195 21,-57 33,-99 35,-126 2,-25 -4,-37 -18,-37 -24,0 -52,13 -84,40 -32,26 -66,61 -102,103 -36,43 -72,91 -108,144 -37,52 -72,106 -106,159 -34,54 -65,104 -93,151 -27,48 -51,87 -70,118l0 -2 -32 57 2 0c-23,54 -42,117 -58,189 -16,72 -27,140 -34,203 -2,48 -1,88 3,122 5,34 10,60 14,79 4,13 6,23 6,31 0,19 -16,28 -47,28 -49,0 -89,-9 -121,-29 -32,-20 -57,-45 -75,-77 -18,-32 -31,-68 -39,-109 -7,-41 -11,-82 -11,-124 0,-14 1,-27 1,-41 1,-13 2,-27 3,-42 4,-48 13,-109 27,-183 13,-75 30,-157 49,-246 20,-89 41,-184 64,-282 23,-99 47,-197 70,-293 17,-77 35,-152 52,-225 18,-72 33,-139 46,-200 13,-61 24,-114 33,-159 8,-46 14,-80 17,-105 1,-23 1,-42 -1,-58 -2,-15 -5,-30 -7,-43 -2,-7 -3,-14 -3,-20 -1,-6 -1,-12 -1,-17 1,-19 9,-31 24,-38 15,-6 32,-9 51,-9 51,0 93,9 125,26 32,17 56,38 73,65 17,26 28,56 32,90 5,34 6,68 4,102 -3,20 -10,56 -20,107 -10,52 -22,112 -37,180 -15,69 -32,142 -50,220 -18,78 -36,153 -52,226l-71 317z"/>
  <path id="5" class="fil0" d="M9702 7759c-3,4 -11,8 -23,12 -13,4 -22,7 -28,7 -16,0 -30,-9 -42,-25 5,-15 9,-29 11,-42 2,-12 4,-26 7,-41 1,-34 -1,-70 -7,-107 -6,-37 -18,-71 -34,-100 -16,-30 -37,-55 -63,-75 -26,-19 -57,-29 -93,-29 -48,0 -96,19 -145,56 -48,37 -95,85 -140,144 -44,59 -86,125 -126,198 -39,73 -74,146 -104,219 -31,72 -56,140 -75,204 -18,64 -29,115 -32,154 -1,19 -2,40 -1,61 1,22 4,42 11,60 7,18 17,33 31,45 13,11 32,17 56,17 42,0 87,-21 134,-64 46,-43 92,-94 136,-155 44,-61 85,-125 123,-192 38,-67 69,-126 95,-176 4,-15 11,-33 19,-53 9,-20 12,-43 10,-67 -3,-19 4,-31 22,-38 18,-6 36,-9 57,-11 80,7 136,26 167,56 32,31 50,67 54,109 4,43 0,90 -13,140 -13,50 -23,97 -29,140 -2,10 -4,25 -7,47 -4,22 -7,45 -10,71 -2,26 -4,52 -6,78 -1,27 0,49 3,66 4,18 10,29 19,35 8,5 22,1 39,-14 33,-33 67,-75 104,-127 36,-52 73,-108 109,-167 35,-59 70,-118 103,-179 33,-60 64,-115 91,-165 14,-33 30,-64 45,-93 16,-29 29,-53 40,-72 9,-4 20,-6 30,-6 13,0 22,4 30,11 7,8 14,17 19,28l-20 44c-19,38 -41,82 -66,132 -25,50 -52,103 -81,159 -30,55 -61,112 -94,169 -33,56 -66,111 -99,162 -34,52 -68,99 -102,141 -35,43 -67,77 -99,103 -27,23 -59,42 -97,57 -38,15 -75,22 -112,22 -49,0 -87,-17 -114,-52 -27,-34 -47,-76 -60,-124 -12,-48 -20,-98 -21,-149 -1,-51 1,-94 6,-128 0,-3 0,-4 0,-5 0,-1 1,-6 2,-15 -36,61 -77,120 -121,177 -44,58 -90,109 -140,154 -49,45 -101,81 -155,109 -55,27 -110,41 -167,41 -53,0 -97,-9 -134,-28 -37,-19 -66,-44 -87,-75 -22,-32 -38,-68 -47,-110 -10,-42 -14,-86 -14,-132 0,-8 0,-18 0,-29 0,-10 0,-21 2,-30 8,-68 25,-143 51,-226 27,-82 61,-166 102,-251 41,-84 89,-167 143,-246 54,-80 114,-151 178,-213 64,-61 132,-111 204,-148 72,-37 147,-56 224,-56 59,0 112,14 158,43 46,28 85,65 116,110 31,46 54,97 68,153 14,56 19,113 15,169 -4,40 -12,76 -24,110l-2 2z"/>
  <path id="6" class="fil0" d="M10108 7885l141 -278c-47,-4 -86,-17 -119,-38 -34,-21 -61,-47 -82,-79 -21,-32 -35,-67 -44,-107 -9,-39 -11,-79 -7,-120 5,-43 18,-88 37,-134 20,-46 45,-88 75,-126 31,-38 66,-69 107,-93 41,-24 85,-37 134,-37 61,0 104,18 129,53 25,35 36,88 32,159 -4,38 -12,78 -23,120 -11,42 -22,81 -34,118 -12,38 -24,71 -36,101 -11,30 -20,52 -25,67 32,8 64,13 94,14 31,2 60,2 87,2 28,0 53,1 76,2 22,2 41,7 57,16 15,8 26,22 33,39 7,18 9,43 6,75 -2,23 -6,46 -12,69l-20 84c-12,49 -25,100 -38,154 -13,54 -25,108 -36,162 -12,53 -22,104 -32,153 -9,49 -16,92 -20,128 -3,43 0,80 9,109 9,29 21,45 36,48 24,-10 52,-31 84,-64 32,-34 64,-74 97,-121 34,-48 68,-100 103,-156 35,-56 69,-112 101,-168 31,-57 61,-111 88,-163 27,-52 51,-97 71,-135l6 -14 -2 0c7,-14 13,-25 19,-33 7,-8 17,-12 32,-12 18,0 34,14 51,41l-23 42c-19,38 -41,82 -66,132 -25,50 -52,103 -81,159 -29,55 -60,112 -93,169 -34,56 -67,111 -100,162 -33,52 -67,99 -102,141 -34,43 -67,77 -98,103 -27,23 -59,42 -97,57 -37,15 -74,22 -112,22 -36,0 -65,-10 -90,-29 -24,-20 -44,-46 -60,-80 -15,-33 -26,-71 -33,-114 -7,-44 -10,-89 -10,-137 0,-14 0,-30 1,-45 0,-16 1,-31 3,-46 2,-34 9,-79 20,-136 11,-57 24,-116 39,-178 15,-62 30,-121 46,-178 17,-57 32,-103 47,-140l-138 -6c-23,47 -47,96 -71,144 -25,49 -48,96 -71,143l-86 -21zm126 -510c-2,26 1,48 9,65 9,18 27,29 54,35 6,-12 14,-32 26,-58 11,-27 23,-56 34,-90 12,-33 22,-66 32,-100 9,-34 15,-64 18,-92 1,-28 -1,-42 -6,-42 -11,0 -25,9 -43,27 -17,19 -35,42 -53,70 -17,29 -33,60 -46,93 -14,33 -22,64 -25,92z"/>
  <path id="7" class="fil0" d="M12577 7715c16,-11 31,-15 43,-13 12,3 27,13 44,29 -20,47 -45,92 -76,135 -30,43 -64,81 -102,116 -38,34 -80,63 -124,87 -45,24 -92,40 -141,48 -35,5 -72,4 -112,-3 -40,-8 -78,-22 -113,-42 -30,60 -60,116 -89,169 -30,53 -57,100 -82,142 -24,41 -51,81 -81,122 -30,41 -63,77 -100,110 -36,32 -77,58 -121,78 -45,20 -95,28 -149,25 -46,-1 -84,-14 -115,-39 -30,-25 -54,-60 -73,-103 -18,-43 -31,-94 -38,-151 -8,-58 -12,-119 -12,-184 0,-53 2,-108 7,-165 4,-57 9,-113 15,-167 6,-55 12,-109 19,-161 7,-52 14,-101 20,-145 10,-58 17,-109 23,-152 5,-42 7,-74 6,-94 -2,-19 -5,-35 -9,-49 -5,-13 -9,-26 -13,-36 -3,-6 -5,-10 -7,-14 -1,-3 -2,-8 -2,-15 -2,-19 3,-32 17,-40 13,-9 29,-14 48,-17 27,-4 56,-4 86,-2 30,3 51,7 63,12 43,22 76,56 97,101 22,45 34,94 37,145 1,27 1,56 -1,86 -2,29 -5,59 -7,88 -3,29 -7,57 -11,82 -5,26 -10,49 -14,69 -5,30 -11,64 -17,102 -6,38 -12,78 -18,120 -6,42 -12,85 -17,128 -4,43 -8,84 -11,122 0,2 0,6 -1,10 0,4 -1,7 -1,10 0,12 0,26 -1,42 0,15 -1,31 -1,47 0,21 1,41 3,60 2,20 6,38 11,54 6,17 14,30 24,41 10,11 24,17 42,18 21,3 42,-2 61,-13 20,-12 39,-26 57,-44 19,-17 35,-37 50,-58 15,-21 28,-41 39,-60 27,-43 56,-93 87,-149 31,-56 65,-121 102,-194 -37,-47 -64,-107 -82,-180 -17,-72 -26,-149 -26,-230 0,-91 10,-184 31,-278 20,-94 49,-179 86,-254 37,-75 82,-135 135,-181 53,-45 111,-66 175,-62 58,5 99,25 123,60 23,36 35,83 35,142 0,46 -6,97 -19,153 -13,56 -30,116 -51,178 -21,62 -45,126 -73,191 -28,65 -56,129 -84,193l-114 236c43,36 88,54 134,54 8,0 17,0 26,-2 10,-1 20,-3 31,-6 34,-8 67,-22 99,-41 33,-20 63,-43 92,-69 28,-27 54,-56 78,-88 24,-32 44,-65 60,-100l2 -4zm-339 -793c-27,-7 -53,1 -77,25 -25,23 -48,55 -69,98 -21,43 -39,92 -55,149 -17,57 -31,117 -43,179 -12,63 -21,124 -28,186 -6,62 -9,118 -9,168 0,76 7,129 21,160l83 -156c24,-50 51,-107 79,-170 29,-63 55,-126 79,-190 25,-64 45,-125 60,-184 16,-59 24,-108 24,-149 0,-68 -22,-106 -65,-116z"/>
  <path id="8" class="fil0" d="M13562 7759c-2,4 -10,8 -23,12 -13,4 -22,7 -27,7 -17,0 -31,-9 -43,-25 5,-15 9,-29 11,-42 2,-12 5,-26 7,-41 2,-34 -1,-70 -7,-107 -6,-37 -17,-71 -33,-100 -17,-30 -38,-55 -63,-75 -26,-19 -57,-29 -94,-29 -47,0 -95,19 -144,56 -49,37 -96,85 -140,144 -45,59 -87,125 -126,198 -40,73 -74,146 -105,219 -30,72 -55,140 -74,204 -19,64 -30,115 -33,154 -1,19 -1,40 -1,61 1,22 5,42 12,60 6,18 17,33 30,45 14,11 33,17 57,17 42,0 86,-21 133,-64 47,-43 92,-94 136,-155 44,-61 85,-125 123,-192 38,-67 70,-126 96,-176 4,-15 10,-33 19,-53 9,-20 12,-43 9,-67 -3,-19 5,-31 22,-38 18,-6 37,-9 57,-11 80,7 136,26 168,56 32,31 50,67 54,109 4,43 -1,90 -13,140 -13,50 -23,97 -30,140 -1,10 -4,25 -7,47 -3,22 -6,45 -9,71 -3,26 -5,52 -6,78 -2,27 -1,49 3,66 3,18 9,29 18,35 9,5 22,1 40,-14 32,-33 67,-75 103,-127 37,-52 73,-108 109,-167 36,-59 70,-118 104,-179 33,-60 63,-115 90,-165 15,-33 30,-64 46,-93 15,-29 29,-53 39,-72 10,-4 20,-6 31,-6 12,0 22,4 29,11 8,8 14,17 20,28l-21 44c-19,38 -41,82 -66,132 -25,50 -52,103 -81,159 -29,55 -60,112 -93,169 -34,56 -67,111 -100,162 -33,52 -67,99 -102,141 -34,43 -67,77 -98,103 -27,23 -60,42 -98,57 -38,15 -75,22 -111,22 -49,0 -87,-17 -114,-52 -27,-34 -47,-76 -60,-124 -13,-48 -20,-98 -21,-149 -2,-51 0,-94 6,-128 0,-3 0,-4 0,-5 0,-1 0,-6 2,-15 -37,61 -77,120 -121,177 -44,58 -91,109 -140,154 -50,45 -102,81 -156,109 -54,27 -110,41 -166,41 -53,0 -98,-9 -135,-28 -36,-19 -65,-44 -87,-75 -22,-32 -37,-68 -47,-110 -9,-42 -14,-86 -14,-132 0,-8 0,-18 0,-29 0,-10 1,-21 2,-30 8,-68 26,-143 52,-226 26,-82 60,-166 102,-251 41,-84 89,-167 143,-246 54,-80 113,-151 178,-213 64,-61 132,-111 204,-148 72,-37 146,-56 223,-56 60,0 113,14 159,43 46,28 84,65 116,110 31,46 53,97 68,153 14,56 19,113 15,169 -4,40 -12,76 -24,110l-3 2z"/>
  <path id="9" class="fil0" d="M14070 6510c-17,-15 -23,-31 -17,-48 6,-17 26,-38 60,-64 14,-12 29,-22 47,-30 17,-7 35,-11 54,-13 18,-1 35,1 51,7 17,6 30,18 41,34 18,20 35,51 51,91 16,41 28,85 37,131 8,47 10,94 7,141 -4,46 -16,87 -38,122 -22,34 -41,56 -58,67 -17,10 -31,11 -42,5 -4,-4 -7,-13 -10,-25 -2,-12 -2,-27 2,-44 4,-22 3,-48 -5,-78 -7,-29 -19,-61 -36,-93 -17,-33 -38,-66 -63,-101 -25,-34 -52,-68 -81,-102z"/>
  <path id="10" class="fil0" d="M15204 7969c-8,35 -15,69 -22,103 -7,34 -13,68 -18,103 -6,34 -11,70 -17,107 -5,38 -10,79 -14,123 -4,53 -4,98 0,133 4,36 8,65 12,87 2,8 3,15 4,21 2,6 2,11 0,15 0,10 -5,16 -15,20 -10,3 -19,5 -27,5 -50,-7 -92,-27 -125,-60 -33,-33 -60,-73 -79,-120 -18,-47 -31,-98 -36,-152 -5,-55 -6,-108 -2,-158 4,-49 12,-107 24,-175 12,-67 27,-140 44,-218 17,-78 36,-159 56,-244 20,-85 40,-168 61,-251 23,-93 42,-176 59,-247 16,-71 30,-139 42,-204 -43,56 -85,108 -125,157 -40,48 -74,88 -102,119 -19,21 -40,40 -62,59 -23,19 -46,36 -69,51 -24,15 -47,27 -69,36 -23,9 -43,13 -62,13 -37,0 -66,-15 -88,-45l0 2c-2,-1 -4,-6 -4,-14 -5,-9 -4,-18 2,-24l0 2c-2,2 0,1 8,-4 9,-6 16,-12 23,-19 12,-8 28,-20 49,-37 20,-17 42,-36 65,-58 43,-46 82,-89 117,-129 36,-40 70,-82 104,-125l248 -356c5,-13 14,-22 26,-26 13,-4 26,-6 41,-4 50,4 91,17 122,38 31,22 54,49 69,82 14,34 22,72 25,115 4,44 3,89 -3,137 -2,36 -7,74 -13,112 -6,39 -13,76 -20,111 -8,35 -15,68 -23,98 -7,29 -13,55 -19,77l-83 343c-18,69 -35,137 -53,202 -18,66 -35,132 -51,199z"/>
  <path id="11" class="fil0" d="M15635 8489c19,20 39,35 60,44 21,10 42,15 62,17 65,4 126,-10 182,-40 56,-30 108,-72 155,-125 48,-53 91,-113 129,-182 39,-68 73,-138 104,-209 30,-71 56,-140 78,-207 22,-67 40,-127 55,-178 -35,32 -73,59 -112,80 -39,21 -78,38 -118,50 -39,12 -78,21 -116,25 -37,5 -72,7 -103,7 -92,0 -169,-17 -230,-52 -61,-36 -108,-82 -143,-141 -35,-58 -57,-124 -66,-199 -10,-74 -8,-151 4,-229 14,-92 39,-179 77,-259 38,-81 87,-152 147,-214 59,-61 130,-112 211,-151 81,-39 172,-64 272,-75 11,-2 22,-2 33,-2 10,0 20,0 28,0 104,0 194,21 268,63 75,42 136,98 183,167 48,70 82,150 105,240 22,90 33,183 33,279 -1,19 -2,38 -2,55 0,18 -1,37 -4,57 -8,94 -25,193 -52,297 -26,104 -61,208 -104,311 -44,103 -96,201 -157,294 -61,94 -130,176 -207,248 -77,72 -162,129 -255,172 -93,43 -193,64 -302,64 -32,0 -63,-2 -91,-6 -23,-3 -46,-7 -69,-13 -23,-6 -44,-16 -63,-28 -19,-12 -35,-27 -47,-46 -12,-18 -20,-40 -22,-68 -2,-6 0,-14 6,-24 5,-9 12,-18 20,-24 8,-7 17,-11 26,-12 8,0 17,5 25,16l0 -2zm514 -862c56,-5 107,-28 155,-69 49,-41 91,-89 126,-146 36,-57 65,-117 86,-179 21,-62 31,-118 31,-167 0,-43 -5,-91 -15,-143 -10,-52 -27,-100 -50,-145 -23,-45 -53,-82 -91,-112 -38,-30 -85,-45 -140,-45 -32,-1 -61,4 -90,15 -28,10 -55,25 -81,44 -46,37 -85,86 -116,149 -31,62 -54,129 -70,201 -16,72 -22,144 -20,216 2,73 13,138 33,196 21,59 51,105 91,139 40,35 90,50 151,46z"/>
 </g>
</svg>
